When Max, who is recovering from a traumatic accident, takes a job as a nighttime security guard, he begins to see visions of a young mysterious woman in the store's mirror.

Genre:Horror | Mystery | Thriller
Language:English  http://www.imdb.com/title/tt1576699/
Source:720p.DTS.x264-BECKS
 
http://www.youtube.com/watch?v=cj5FPro4YSE&feature=player_embedded
 
http://www.starshare.ro/bitbucket/vlcsnap-2010-10-19-23h37m06s227.jpg 
http://www.starshare.ro/bitbucket/vlcsnap-2010-10-19-23h37m11s27.jpg 
http://www.starshare.ro/bitbucket/vlcsnap-2010-10-19-23h37m37s29.jpg 
http://www.starshare.ro/bitbucket/vlcsnap-2010-10-19-23h38m16s164.jpg

General
Complete name :Mirrors.2.2010.BRRip.480p.H264.Feel-Free
Format : MPEG-4
Format profile : Base Media
Codec ID : isom
File size : 1.49 GiB
Duration : 1h 30mn
Overall bit rate : 2 365 Kbps
Video #1
Codec ID : avc1
Codec ID/Info : Advanced Video Coding
Duration : 1h 30mn
Bit rate mode : Variable
Bit rate : 2 047 Kbps
Width : 720 pixels
Height : 384 pixels
Display aspect ratio : 1.875
Frame rate mode : Constant
Frame rate : 24.390 fps
Resolution : 24 bits
Colorimetry : 4:2:0
Scan type : Progressive
Bits/(Pixel*Frame) : 0.304
Stream size : 1.29 GiB (87%)
Audio #2
ID : 2
Format : AAC
Format/Info : Advanced Audio Codec
Format version : Version 4
Format profile : LC
Format settings, SBR : No
Codec ID : 40
Duration : 1h 30mn
Bit rate mode : Variable
Bit rate : 320 Kbps
Channel(s) : 6 channels
Channel positions : Front: L C R, Rear: L R, LFE
Sampling rate : 48.0 KHz
Resolution : 16 bits
Stream size : 203 MiB (13%)